{
	"asset":{
		"generator":"Khronos glTF Blender I/O v4.3.47",
		"version":"2.0"
	},
	"scene":0,
	"scenes":[
		{
			"name":"Scene",
			"nodes":[
				0,
				6,
				9,
				13,
				15,
				18,
				20,
				22
			]
		},
		{
			"name":"Sheet_Overview"
		}
	],
	"nodes":[
		{
			"mesh":0,
			"name":"rv_001-body.baked",
			"translation":[
				0,
				0.009999997913837433,
				0
			]
		},
		{
			"name":"rv_001-brush-bristle-radial_empty.002",
			"rotation":[
				0.8660253882408142,
				0,
				0,
				0.4999999701976776
			]
		},
		{
			"children":[
				1
			],
			"mesh":1,
			"name":"rv_001-brush-bristle.baked"
		},
		{
			"name":"rv_001-brush-bristle_silicone-radial_empty.002",
			"rotation":[
				0.8660253882408142,
				0,
				0,
				0.4999999701976776
			]
		},
		{
			"children":[
				3
			],
			"mesh":2,
			"name":"rv_001-brush-bristle_silicone.baked",
			"rotation":[
				-1,
				0,
				0,
				1.6292068494294654e-07
			]
		},
		{
			"children":[
				2,
				4
			],
			"mesh":3,
			"name":"rv_001-brush-base.baked",
			"translation":[
				0,
				0.009999999776482582,
				0.009999997913837433
			]
		},
		{
			"children":[
				5
			],
			"mesh":4,
			"name":"rv_001-brush_lid.baked",
			"translation":[
				0,
				0.009999999776482582,
				-0.0049999975599348545
			]
		},
		{
			"name":"HLP-rv_001-buttons-decal-home.002",
			"translation":[
				0,
				0,
				0.009999997913837433
			]
		},
		{
			"name":"HLP-rv_001-buttons-decal-power.002",
			"translation":[
				0,
				0,
				-0.009999997913837433
			]
		},
		{
			"children":[
				7,
				8
			],
			"mesh":5,
			"name":"rv_001-buttons.baked",
			"rotation":[
				0,
				-1,
				0,
				1.6292068494294654e-07
			],
			"translation":[
				0,
				0.07999999821186066,
				0.11999999731779099
			]
		},
		{
			"mesh":6,
			"name":"rv_001-cover-lid-hinge.baked",
			"rotation":[
				-0.5000001788139343,
				-0.49999988079071045,
				-0.49999988079071045,
				0.5000001192092896
			],
			"translation":[
				-0.08000000566244125,
				-0.005000002682209015,
				0.06000002101063728
			]
		},
		{
			"children":[
				10
			],
			"mesh":7,
			"name":"rv_001-cover-lid.baked",
			"rotation":[
				0,
				-0.7071068286895752,
				0,
				0.7071068286895752
			],
			"translation":[
				0.05999999865889549,
				0.005000002682209015,
				0
			]
		},
		{
			"children":[
				11
			],
			"name":"HLP-rv_001-cover-lid-rotator.baked",
			"rotation":[
				0,
				0.7071068286895752,
				0,
				0.7071068286895752
			],
			"translation":[
				0,
				-0.005000002682209015,
				0.05999999865889549
			]
		},
		{
			"children":[
				12
			],
			"mesh":8,
			"name":"rv_001-cover.baked",
			"translation":[
				0,
				0.07699999958276749,
				0
			]
		},
		{
			"mesh":9,
			"name":"rv_001-body-front_bumper-camera_window.baked"
		},
		{
			"children":[
				14
			],
			"mesh":10,
			"name":"rv_001-front_bumper.baked",
			"translation":[
				0,
				0.019999997690320015,
				0
			]
		},
		{
			"name":"rv_001-side_brush-brush-radial_empty.baked",
			"rotation":[
				0.03698339685797691,
				0.9731777310371399,
				0.17968884110450745,
				0.13881364464759827
			]
		},
		{
			"mesh":11,
			"name":"rv_001-side_brush-brush.baked",
			"rotation":[
				-0.13712342083454132,
				0.36637264490127563,
				0.12187296152114868,
				0.9122034907341003
			]
		},
		{
			"children":[
				16,
				17
			],
			"mesh":12,
			"name":"rv_001-side_brush-core.baked",
			"translation":[
				-0.11000000685453415,
				0.015000000596046448,
				0.09000000357627869
			]
		},
		{
			"mesh":13,
			"name":"rv_001-wheels-duo.baked",
			"translation":[
				-0.009000003337860107,
				0.010000001639127731,
				-0.044999998062849045
			]
		},
		{
			"children":[
				19
			],
			"mesh":14,
			"name":"rv_001-wheels-duo-hinge.baked",
			"translation":[
				0.12700000405311584,
				0.02500000037252903,
				0.04500000551342964
			]
		},
		{
			"mesh":15,
			"name":"rv_001-wheels-front.baked",
			"translation":[
				0,
				0.002500012516975403,
				0.01499999314546585
			]
		},
		{
			"children":[
				21
			],
			"mesh":16,
			"name":"rv_001-wheels-front-base.baked",
			"translation":[
				0,
				0.009999987669289112,
				0.11999999731779099
			]
		}
	],
	"materials":[
		{
			"doubleSided":true,
			"name":"rv_001-baked",
			"occlusionTexture":{
				"index":0
			},
			"pbrMetallicRoughness":{
				"baseColorTexture":{
					"index":1
				},
				"metallicRoughnessTexture":{
					"index":0
				}
			}
		}
	],
	"meshes":[
		{
			"name":"rv_001-body",
			"primitives":[
				{
					"attributes":{
						"POSITION":0,
						"NORMAL":1,
						"TEXCOORD_0":2
					},
					"indices":3,
					"material":0
				}
			]
		},
		{
			"name":"rv_001-brush-bristle",
			"primitives":[
				{
					"attributes":{
						"POSITION":4,
						"NORMAL":5,
						"TEXCOORD_0":6
					},
					"indices":7,
					"material":0
				}
			]
		},
		{
			"name":"rv_001-brush-bristle_silicone",
			"primitives":[
				{
					"attributes":{
						"POSITION":8,
						"NORMAL":9,
						"TEXCOORD_0":10
					},
					"indices":11,
					"material":0
				}
			]
		},
		{
			"name":"rv_001-brush-base",
			"primitives":[
				{
					"attributes":{
						"POSITION":12,
						"NORMAL":13,
						"TEXCOORD_0":14
					},
					"indices":15,
					"material":0
				}
			]
		},
		{
			"name":"rv_001-brush_lid",
			"primitives":[
				{
					"attributes":{
						"POSITION":16,
						"NORMAL":17,
						"TEXCOORD_0":18
					},
					"indices":19,
					"material":0
				}
			]
		},
		{
			"name":"rv_001-buttons",
			"primitives":[
				{
					"attributes":{
						"POSITION":20,
						"NORMAL":21,
						"TEXCOORD_0":22
					},
					"indices":23,
					"material":0
				}
			]
		},
		{
			"name":"rv_001-cover-lid-hinge",
			"primitives":[
				{
					"attributes":{
						"POSITION":24,
						"NORMAL":25,
						"TEXCOORD_0":26
					},
					"indices":27,
					"material":0
				}
			]
		},
		{
			"name":"rv_001-cover-lid",
			"primitives":[
				{
					"attributes":{
						"POSITION":28,
						"NORMAL":29,
						"TEXCOORD_0":30
					},
					"indices":31,
					"material":0
				}
			]
		},
		{
			"name":"rv_001-cover",
			"primitives":[
				{
					"attributes":{
						"POSITION":32,
						"NORMAL":33,
						"TEXCOORD_0":34
					},
					"indices":35,
					"material":0
				}
			]
		},
		{
			"name":"rv_001-body-front_bumper-camera_window",
			"primitives":[
				{
					"attributes":{
						"POSITION":36,
						"NORMAL":37,
						"TEXCOORD_0":38
					},
					"indices":39,
					"material":0
				},
				{
					"attributes":{
						"POSITION":40,
						"NORMAL":41,
						"TEXCOORD_0":42
					},
					"indices":43,
					"material":0
				}
			]
		},
		{
			"name":"rv_001-front_bumper",
			"primitives":[
				{
					"attributes":{
						"POSITION":44,
						"NORMAL":45,
						"TEXCOORD_0":46
					},
					"indices":47,
					"material":0
				},
				{
					"attributes":{
						"POSITION":48,
						"NORMAL":49,
						"TEXCOORD_0":50
					},
					"indices":51,
					"material":0
				}
			]
		},
		{
			"name":"rv_001-side_brush-brush",
			"primitives":[
				{
					"attributes":{
						"POSITION":52,
						"NORMAL":53,
						"TEXCOORD_0":54
					},
					"indices":55,
					"material":0
				}
			]
		},
		{
			"name":"rv_001-side_brush-core",
			"primitives":[
				{
					"attributes":{
						"POSITION":56,
						"NORMAL":57,
						"TEXCOORD_0":58
					},
					"indices":59,
					"material":0
				}
			]
		},
		{
			"name":"rv_001-wheels-duo",
			"primitives":[
				{
					"attributes":{
						"POSITION":60,
						"NORMAL":61,
						"TEXCOORD_0":62
					},
					"indices":63,
					"material":0
				}
			]
		},
		{
			"name":"rv_001-wheels-duo-hinge",
			"primitives":[
				{
					"attributes":{
						"POSITION":64,
						"NORMAL":65,
						"TEXCOORD_0":66
					},
					"indices":67,
					"material":0
				}
			]
		},
		{
			"name":"rv_001-wheels-front",
			"primitives":[
				{
					"attributes":{
						"POSITION":68,
						"NORMAL":69,
						"TEXCOORD_0":70
					},
					"indices":71,
					"material":0
				}
			]
		},
		{
			"name":"rv_001-wheels-front-base",
			"primitives":[
				{
					"attributes":{
						"POSITION":72,
						"NORMAL":73,
						"TEXCOORD_0":74
					},
					"indices":75,
					"material":0
				}
			]
		}
	],
	"textures":[
		{
			"sampler":0,
			"source":0
		},
		{
			"sampler":0,
			"source":1
		}
	],
	"images":[
		{
			"mimeType":"image/png",
			"name":"rv_001_512_aorm",
			"uri":"rv_001_512_aorm.png"
		},
		{
			"mimeType":"image/png",
			"name":"rv_001_512_color",
			"uri":"rv_001_512_color.png"
		}
	],
	"accessors":[
		{
			"bufferView":0,
			"componentType":5126,
			"count":542,
			"max":[
				0.17382916808128357,
				0.07000000029802322,
				0.16499999165534973
			],
			"min":[
				-0.17382916808128357,
				-2.3283064365386963e-09,
				-0.17499999701976776
			],
			"type":"VEC3"
		},
		{
			"bufferView":1,
			"componentType":5126,
			"count":542,
			"type":"VEC3"
		},
		{
			"bufferView":2,
			"componentType":5126,
			"count":542,
			"type":"VEC2"
		},
		{
			"bufferView":3,
			"componentType":5123,
			"count":1008,
			"type":"SCALAR"
		},
		{
			"bufferView":4,
			"componentType":5126,
			"count":108,
			"max":[
				0.08499999344348907,
				0.014428202994167805,
				0.016990380361676216
			],
			"min":[
				-0.08499999344348907,
				-0.014999998733401299,
				-0.016990380361676216
			],
			"type":"VEC3"
		},
		{
			"bufferView":5,
			"componentType":5126,
			"count":108,
			"type":"VEC3"
		},
		{
			"bufferView":6,
			"componentType":5126,
			"count":108,
			"type":"VEC2"
		},
		{
			"bufferView":7,
			"componentType":5123,
			"count":180,
			"type":"SCALAR"
		},
		{
			"bufferView":8,
			"componentType":5126,
			"count":108,
			"max":[
				0.08499999344348907,
				0.013428201898932457,
				0.01525832712650299
			],
			"min":[
				-0.08499999344348907,
				-0.012999998405575752,
				-0.01525832898914814
			],
			"type":"VEC3"
		},
		{
			"bufferView":9,
			"componentType":5126,
			"count":108,
			"type":"VEC3"
		},
		{
			"bufferView":10,
			"componentType":5126,
			"count":108,
			"type":"VEC2"
		},
		{
			"bufferView":11,
			"componentType":5123,
			"count":180,
			"type":"SCALAR"
		},
		{
			"bufferView":12,
			"componentType":5126,
			"count":72,
			"max":[
				0.09999999403953552,
				0.010000006295740604,
				0.009999999776482582
			],
			"min":[
				-0.09999999403953552,
				-0.009999999776482582,
				-0.009999999776482582
			],
			"type":"VEC3"
		},
		{
			"bufferView":13,
			"componentType":5126,
			"count":72,
			"type":"VEC3"
		},
		{
			"bufferView":14,
			"componentType":5126,
			"count":72,
			"type":"VEC2"
		},
		{
			"bufferView":15,
			"componentType":5123,
			"count":150,
			"type":"SCALAR"
		},
		{
			"bufferView":16,
			"componentType":5126,
			"count":64,
			"max":[
				0.10499999672174454,
				0.009999996051192284,
				0.032499998807907104
			],
			"min":[
				-0.10499999672174454,
				-0.004999993368983269,
				-0.032499998807907104
			],
			"type":"VEC3"
		},
		{
			"bufferView":17,
			"componentType":5126,
			"count":64,
			"type":"VEC3"
		},
		{
			"bufferView":18,
			"componentType":5126,
			"count":64,
			"type":"VEC2"
		},
		{
			"bufferView":19,
			"componentType":5123,
			"count":120,
			"type":"SCALAR"
		},
		{
			"bufferView":20,
			"componentType":5126,
			"count":90,
			"max":[
				0.009999999776482582,
				-5.820766091346741e-11,
				0.019999999552965164
			],
			"min":[
				-0.009999999776482582,
				-0.004500000271946192,
				-0.019999999552965164
			],
			"type":"VEC3"
		},
		{
			"bufferView":21,
			"componentType":5126,
			"count":90,
			"type":"VEC3"
		},
		{
			"bufferView":22,
			"componentType":5126,
			"count":90,
			"type":"VEC2"
		},
		{
			"bufferView":23,
			"componentType":5123,
			"count":144,
			"type":"SCALAR"
		},
		{
			"bufferView":24,
			"componentType":5126,
			"count":96,
			"max":[
				0.00535767525434494,
				0.16350004076957703,
				0.005357585847377777
			],
			"min":[
				-0.01993435062468052,
				-0.003500002669170499,
				-0.019934356212615967
			],
			"type":"VEC3"
		},
		{
			"bufferView":25,
			"componentType":5126,
			"count":96,
			"type":"VEC3"
		},
		{
			"bufferView":26,
			"componentType":5126,
			"count":96,
			"type":"VEC2"
		},
		{
			"bufferView":27,
			"componentType":5123,
			"count":168,
			"type":"SCALAR"
		},
		{
			"bufferView":28,
			"componentType":5126,
			"count":110,
			"max":[
				0.1599999964237213,
				0.003000000026077032,
				0.0495000034570694
			],
			"min":[
				-0.1599999964237213,
				1.1641532182693481e-10,
				-0.15999998152256012
			],
			"type":"VEC3"
		},
		{
			"bufferView":29,
			"componentType":5126,
			"count":110,
			"type":"VEC3"
		},
		{
			"bufferView":30,
			"componentType":5126,
			"count":110,
			"type":"VEC2"
		},
		{
			"bufferView":31,
			"componentType":5123,
			"count":186,
			"type":"SCALAR"
		},
		{
			"bufferView":32,
			"componentType":5126,
			"count":152,
			"max":[
				0.14985547959804535,
				0.003000000026077032,
				0.1600000113248825
			],
			"min":[
				-0.14985547959804535,
				1.1641532182693481e-10,
				0.05100000277161598
			],
			"type":"VEC3"
		},
		{
			"bufferView":33,
			"componentType":5126,
			"count":152,
			"type":"VEC3"
		},
		{
			"bufferView":34,
			"componentType":5126,
			"count":152,
			"type":"VEC2"
		},
		{
			"bufferView":35,
			"componentType":5123,
			"count":282,
			"type":"SCALAR"
		},
		{
			"bufferView":36,
			"componentType":5126,
			"count":52,
			"max":[
				0.039999984204769135,
				0.04500005021691322,
				0.17499999701976776
			],
			"min":[
				-0.03999998793005943,
				0.01499994471669197,
				0.162043496966362
			],
			"type":"VEC3"
		},
		{
			"bufferView":37,
			"componentType":5126,
			"count":52,
			"type":"VEC3"
		},
		{
			"bufferView":38,
			"componentType":5126,
			"count":52,
			"type":"VEC2"
		},
		{
			"bufferView":39,
			"componentType":5123,
			"count":84,
			"type":"SCALAR"
		},
		{
			"bufferView":40,
			"componentType":5126,
			"count":32,
			"max":[
				0.039999984204769135,
				0.04500005021691322,
				0.17499999701976776
			],
			"min":[
				-0.03999998793005943,
				0.01499994471669197,
				0.162043496966362
			],
			"type":"VEC3"
		},
		{
			"bufferView":41,
			"componentType":5126,
			"count":32,
			"type":"VEC3"
		},
		{
			"bufferView":42,
			"componentType":5126,
			"count":32,
			"type":"VEC2"
		},
		{
			"bufferView":43,
			"componentType":5123,
			"count":72,
			"type":"SCALAR"
		},
		{
			"bufferView":44,
			"componentType":5126,
			"count":87,
			"max":[
				0.17423559725284576,
				0.05999999865889549,
				0.17499999701976776
			],
			"min":[
				-0.17423559725284576,
				0,
				0.003842939157038927
			],
			"type":"VEC3"
		},
		{
			"bufferView":45,
			"componentType":5126,
			"count":87,
			"type":"VEC3"
		},
		{
			"bufferView":46,
			"componentType":5126,
			"count":87,
			"type":"VEC2"
		},
		{
			"bufferView":47,
			"componentType":5123,
			"count":132,
			"type":"SCALAR"
		},
		{
			"bufferView":48,
			"componentType":5126,
			"count":300,
			"max":[
				0.17423559725284576,
				0.05999999865889549,
				0.17499999701976776
			],
			"min":[
				-0.17423559725284576,
				0,
				0.003842939157038927
			],
			"type":"VEC3"
		},
		{
			"bufferView":49,
			"componentType":5126,
			"count":300,
			"type":"VEC3"
		},
		{
			"bufferView":50,
			"componentType":5126,
			"count":300,
			"type":"VEC2"
		},
		{
			"bufferView":51,
			"componentType":5123,
			"count":576,
			"type":"SCALAR"
		},
		{
			"bufferView":52,
			"componentType":5126,
			"count":426,
			"max":[
				0.03556937724351883,
				0.005989965051412582,
				0.05013035982847214
			],
			"min":[
				-0.06999999284744263,
				-0.037556640803813934,
				-0.06346207112073898
			],
			"type":"VEC3"
		},
		{
			"bufferView":53,
			"componentType":5126,
			"count":426,
			"type":"VEC3"
		},
		{
			"bufferView":54,
			"componentType":5126,
			"count":426,
			"type":"VEC2"
		},
		{
			"bufferView":55,
			"componentType":5123,
			"count":684,
			"type":"SCALAR"
		},
		{
			"bufferView":56,
			"componentType":5126,
			"count":72,
			"max":[
				0.01249999925494194,
				0.009999999776482582,
				0.01249999925494194
			],
			"min":[
				-0.01249999925494194,
				-0.004999999422580004,
				-0.01249999925494194
			],
			"type":"VEC3"
		},
		{
			"bufferView":57,
			"componentType":5126,
			"count":72,
			"type":"VEC3"
		},
		{
			"bufferView":58,
			"componentType":5126,
			"count":72,
			"type":"VEC2"
		},
		{
			"bufferView":59,
			"componentType":5123,
			"count":114,
			"type":"SCALAR"
		},
		{
			"bufferView":60,
			"componentType":5126,
			"count":192,
			"max":[
				0.009000001475214958,
				0.03500000014901161,
				0.03500000014901161
			],
			"min":[
				-0.24500006437301636,
				-0.03500000014901161,
				-0.03500000014901161
			],
			"type":"VEC3"
		},
		{
			"bufferView":61,
			"componentType":5126,
			"count":192,
			"type":"VEC3"
		},
		{
			"bufferView":62,
			"componentType":5126,
			"count":192,
			"type":"VEC2"
		},
		{
			"bufferView":63,
			"componentType":5123,
			"count":360,
			"type":"SCALAR"
		},
		{
			"bufferView":64,
			"componentType":5126,
			"count":124,
			"max":[
				0.01600000262260437,
				0.02499999664723873,
				0.005000006407499313
			],
			"min":[
				-0.27000007033348083,
				-0.004999994300305843,
				-0.05999999865889549
			],
			"type":"VEC3"
		},
		{
			"bufferView":65,
			"componentType":5126,
			"count":124,
			"type":"VEC3"
		},
		{
			"bufferView":66,
			"componentType":5126,
			"count":124,
			"type":"VEC2"
		},
		{
			"bufferView":67,
			"componentType":5123,
			"count":216,
			"type":"SCALAR"
		},
		{
			"bufferView":68,
			"componentType":5126,
			"count":136,
			"max":[
				0.009999999776482582,
				0.01249999925494194,
				0.01249999925494194
			],
			"min":[
				-0.009999999776482582,
				-0.01249999925494194,
				-0.01249999925494194
			],
			"type":"VEC3"
		},
		{
			"bufferView":69,
			"componentType":5126,
			"count":136,
			"type":"VEC3"
		},
		{
			"bufferView":70,
			"componentType":5126,
			"count":136,
			"type":"VEC2"
		},
		{
			"bufferView":71,
			"componentType":5123,
			"count":246,
			"type":"SCALAR"
		},
		{
			"bufferView":72,
			"componentType":5126,
			"count":156,
			"max":[
				0.0299999862909317,
				0.020000001415610313,
				0.029999990016222
			],
			"min":[
				-0.0299999862909317,
				0.0009000101126730442,
				-0.029999982565641403
			],
			"type":"VEC3"
		},
		{
			"bufferView":73,
			"componentType":5126,
			"count":156,
			"type":"VEC3"
		},
		{
			"bufferView":74,
			"componentType":5126,
			"count":156,
			"type":"VEC2"
		},
		{
			"bufferView":75,
			"componentType":5123,
			"count":276,
			"type":"SCALAR"
		}
	],
	"bufferViews":[
		{
			"buffer":0,
			"byteLength":6504,
			"byteOffset":0,
			"target":34962
		},
		{
			"buffer":0,
			"byteLength":6504,
			"byteOffset":6504,
			"target":34962
		},
		{
			"buffer":0,
			"byteLength":4336,
			"byteOffset":13008,
			"target":34962
		},
		{
			"buffer":0,
			"byteLength":2016,
			"byteOffset":17344,
			"target":34963
		},
		{
			"buffer":0,
			"byteLength":1296,
			"byteOffset":19360,
			"target":34962
		},
		{
			"buffer":0,
			"byteLength":1296,
			"byteOffset":20656,
			"target":34962
		},
		{
			"buffer":0,
			"byteLength":864,
			"byteOffset":21952,
			"target":34962
		},
		{
			"buffer":0,
			"byteLength":360,
			"byteOffset":22816,
			"target":34963
		},
		{
			"buffer":0,
			"byteLength":1296,
			"byteOffset":23176,
			"target":34962
		},
		{
			"buffer":0,
			"byteLength":1296,
			"byteOffset":24472,
			"target":34962
		},
		{
			"buffer":0,
			"byteLength":864,
			"byteOffset":25768,
			"target":34962
		},
		{
			"buffer":0,
			"byteLength":360,
			"byteOffset":26632,
			"target":34963
		},
		{
			"buffer":0,
			"byteLength":864,
			"byteOffset":26992,
			"target":34962
		},
		{
			"buffer":0,
			"byteLength":864,
			"byteOffset":27856,
			"target":34962
		},
		{
			"buffer":0,
			"byteLength":576,
			"byteOffset":28720,
			"target":34962
		},
		{
			"buffer":0,
			"byteLength":300,
			"byteOffset":29296,
			"target":34963
		},
		{
			"buffer":0,
			"byteLength":768,
			"byteOffset":29596,
			"target":34962
		},
		{
			"buffer":0,
			"byteLength":768,
			"byteOffset":30364,
			"target":34962
		},
		{
			"buffer":0,
			"byteLength":512,
			"byteOffset":31132,
			"target":34962
		},
		{
			"buffer":0,
			"byteLength":240,
			"byteOffset":31644,
			"target":34963
		},
		{
			"buffer":0,
			"byteLength":1080,
			"byteOffset":31884,
			"target":34962
		},
		{
			"buffer":0,
			"byteLength":1080,
			"byteOffset":32964,
			"target":34962
		},
		{
			"buffer":0,
			"byteLength":720,
			"byteOffset":34044,
			"target":34962
		},
		{
			"buffer":0,
			"byteLength":288,
			"byteOffset":34764,
			"target":34963
		},
		{
			"buffer":0,
			"byteLength":1152,
			"byteOffset":35052,
			"target":34962
		},
		{
			"buffer":0,
			"byteLength":1152,
			"byteOffset":36204,
			"target":34962
		},
		{
			"buffer":0,
			"byteLength":768,
			"byteOffset":37356,
			"target":34962
		},
		{
			"buffer":0,
			"byteLength":336,
			"byteOffset":38124,
			"target":34963
		},
		{
			"buffer":0,
			"byteLength":1320,
			"byteOffset":38460,
			"target":34962
		},
		{
			"buffer":0,
			"byteLength":1320,
			"byteOffset":39780,
			"target":34962
		},
		{
			"buffer":0,
			"byteLength":880,
			"byteOffset":41100,
			"target":34962
		},
		{
			"buffer":0,
			"byteLength":372,
			"byteOffset":41980,
			"target":34963
		},
		{
			"buffer":0,
			"byteLength":1824,
			"byteOffset":42352,
			"target":34962
		},
		{
			"buffer":0,
			"byteLength":1824,
			"byteOffset":44176,
			"target":34962
		},
		{
			"buffer":0,
			"byteLength":1216,
			"byteOffset":46000,
			"target":34962
		},
		{
			"buffer":0,
			"byteLength":564,
			"byteOffset":47216,
			"target":34963
		},
		{
			"buffer":0,
			"byteLength":624,
			"byteOffset":47780,
			"target":34962
		},
		{
			"buffer":0,
			"byteLength":624,
			"byteOffset":48404,
			"target":34962
		},
		{
			"buffer":0,
			"byteLength":416,
			"byteOffset":49028,
			"target":34962
		},
		{
			"buffer":0,
			"byteLength":168,
			"byteOffset":49444,
			"target":34963
		},
		{
			"buffer":0,
			"byteLength":384,
			"byteOffset":49612,
			"target":34962
		},
		{
			"buffer":0,
			"byteLength":384,
			"byteOffset":49996,
			"target":34962
		},
		{
			"buffer":0,
			"byteLength":256,
			"byteOffset":50380,
			"target":34962
		},
		{
			"buffer":0,
			"byteLength":144,
			"byteOffset":50636,
			"target":34963
		},
		{
			"buffer":0,
			"byteLength":1044,
			"byteOffset":50780,
			"target":34962
		},
		{
			"buffer":0,
			"byteLength":1044,
			"byteOffset":51824,
			"target":34962
		},
		{
			"buffer":0,
			"byteLength":696,
			"byteOffset":52868,
			"target":34962
		},
		{
			"buffer":0,
			"byteLength":264,
			"byteOffset":53564,
			"target":34963
		},
		{
			"buffer":0,
			"byteLength":3600,
			"byteOffset":53828,
			"target":34962
		},
		{
			"buffer":0,
			"byteLength":3600,
			"byteOffset":57428,
			"target":34962
		},
		{
			"buffer":0,
			"byteLength":2400,
			"byteOffset":61028,
			"target":34962
		},
		{
			"buffer":0,
			"byteLength":1152,
			"byteOffset":63428,
			"target":34963
		},
		{
			"buffer":0,
			"byteLength":5112,
			"byteOffset":64580,
			"target":34962
		},
		{
			"buffer":0,
			"byteLength":5112,
			"byteOffset":69692,
			"target":34962
		},
		{
			"buffer":0,
			"byteLength":3408,
			"byteOffset":74804,
			"target":34962
		},
		{
			"buffer":0,
			"byteLength":1368,
			"byteOffset":78212,
			"target":34963
		},
		{
			"buffer":0,
			"byteLength":864,
			"byteOffset":79580,
			"target":34962
		},
		{
			"buffer":0,
			"byteLength":864,
			"byteOffset":80444,
			"target":34962
		},
		{
			"buffer":0,
			"byteLength":576,
			"byteOffset":81308,
			"target":34962
		},
		{
			"buffer":0,
			"byteLength":228,
			"byteOffset":81884,
			"target":34963
		},
		{
			"buffer":0,
			"byteLength":2304,
			"byteOffset":82112,
			"target":34962
		},
		{
			"buffer":0,
			"byteLength":2304,
			"byteOffset":84416,
			"target":34962
		},
		{
			"buffer":0,
			"byteLength":1536,
			"byteOffset":86720,
			"target":34962
		},
		{
			"buffer":0,
			"byteLength":720,
			"byteOffset":88256,
			"target":34963
		},
		{
			"buffer":0,
			"byteLength":1488,
			"byteOffset":88976,
			"target":34962
		},
		{
			"buffer":0,
			"byteLength":1488,
			"byteOffset":90464,
			"target":34962
		},
		{
			"buffer":0,
			"byteLength":992,
			"byteOffset":91952,
			"target":34962
		},
		{
			"buffer":0,
			"byteLength":432,
			"byteOffset":92944,
			"target":34963
		},
		{
			"buffer":0,
			"byteLength":1632,
			"byteOffset":93376,
			"target":34962
		},
		{
			"buffer":0,
			"byteLength":1632,
			"byteOffset":95008,
			"target":34962
		},
		{
			"buffer":0,
			"byteLength":1088,
			"byteOffset":96640,
			"target":34962
		},
		{
			"buffer":0,
			"byteLength":492,
			"byteOffset":97728,
			"target":34963
		},
		{
			"buffer":0,
			"byteLength":1872,
			"byteOffset":98220,
			"target":34962
		},
		{
			"buffer":0,
			"byteLength":1872,
			"byteOffset":100092,
			"target":34962
		},
		{
			"buffer":0,
			"byteLength":1248,
			"byteOffset":101964,
			"target":34962
		},
		{
			"buffer":0,
			"byteLength":552,
			"byteOffset":103212,
			"target":34963
		}
	],
	"samplers":[
		{
			"magFilter":9729,
			"minFilter":9987
		}
	],
	"buffers":[
		{
			"byteLength":103764,
			"uri":"rv_001.bin"
		}
	]
}
